<svg width="12" height="14" viewBox="0 0 12 14" fill="none" xmlns="http://www.w3.org/2000/svg">
<path d="M12 11V12H8C8 12.276 7.94792 12.5365 7.84375 12.7812C7.73958 13.0208 7.59635 13.2318 7.41406 13.4141C7.23177 13.5964 7.01823 13.7396 6.77344 13.8438C6.53385 13.9479 6.27604 14 6 14C5.72396 14 5.46354 13.9479 5.21875 13.8438C4.97917 13.7396 4.76823 13.5964 4.58594 13.4141C4.40365 13.2318 4.26042 13.0208 4.15625 12.7812C4.05208 12.5365 4 12.276 4 12H0V11H1V5C1 4.54167 1.0599 4.09896 1.17969 3.67188C1.29948 3.24479 1.46615 2.84635 1.67969 2.47656C1.89844 2.10677 2.15885 1.77083 2.46094 1.46875C2.76823 1.16146 3.10677 0.901042 3.47656 0.6875C3.84635 0.46875 4.24479 0.299479 4.67188 0.179688C5.09896 0.0598958 5.54167 0 6 0C6.45833 0 6.90104 0.0598958 7.32812 0.179688C7.75521 0.299479 8.15365 0.46875 8.52344 0.6875C8.89323 0.901042 9.22917 1.16146 9.53125 1.46875C9.83854 1.77083 10.099 2.10677 10.3125 2.47656C10.5312 2.84635 10.7005 3.24479 10.8203 3.67188C10.9401 4.09896 11 4.54167 11 5V11H12ZM10 11V5C10 4.44792 9.89323 3.92969 9.67969 3.44531C9.47135 2.96094 9.1849 2.53906 8.82031 2.17969C8.46094 1.8151 8.03906 1.52865 7.55469 1.32031C7.07031 1.10677 6.55208 1 6 1C5.44792 1 4.92969 1.10677 4.44531 1.32031C3.96094 1.52865 3.53646 1.8151 3.17188 2.17969C2.8125 2.53906 2.52604 2.96094 2.3125 3.44531C2.10417 3.92969 2 4.44792 2 5V11H10ZM6 13C6.14062 13 6.27083 12.974 6.39062 12.9219C6.51042 12.8698 6.61458 12.7995 6.70312 12.7109C6.79688 12.6172 6.86979 12.5104 6.92188 12.3906C6.97396 12.2708 7 12.1406 7 12H5C5 12.1406 5.02604 12.2708 5.07812 12.3906C5.13021 12.5104 5.20052 12.6172 5.28906 12.7109C5.38281 12.7995 5.48958 12.8698 5.60938 12.9219C5.72917 12.974 5.85938 13 6 13Z" fill="currentColor"/>
</svg>
