<svg width="156" height="156" viewBox="0 0 156 156" fill="none" xmlns="http://www.w3.org/2000/svg">
<path d="M80.7008 0.818984C79.9007 0.286562 78.9611 0.00250244 78 0.00250244C77.0389 0.00250244 76.0993 0.286562 75.2992 0.818984L2.17425 49.569C1.30403 50.1492 0.643511 50.994 0.290249 51.9785C-0.063012 52.9629 -0.0902805 54.0349 0.212472 55.0361C0.515224 56.0372 1.13194 56.9145 1.97153 57.5382C2.81112 58.162 3.82907 58.4992 4.875 58.5H23.1562V126.75H14.625C13.3321 126.75 12.0921 127.264 11.1779 128.178C10.2636 129.092 9.75 130.332 9.75 131.625C9.75 132.918 10.2636 134.158 11.1779 135.072C12.0921 135.986 13.3321 136.5 14.625 136.5H141.375C142.668 136.5 143.908 135.986 144.822 135.072C145.736 134.158 146.25 132.918 146.25 131.625C146.25 130.332 145.736 129.092 144.822 128.178C143.908 127.264 142.668 126.75 141.375 126.75H132.844V58.5H151.125C152.171 58.4992 153.189 58.162 154.028 57.5382C154.868 56.9145 155.485 56.0372 155.788 55.0361C156.09 54.0349 156.063 52.9629 155.71 51.9785C155.356 50.994 154.696 50.1492 153.826 49.569L80.7008 0.818984ZM120.656 58.5V126.75H108.469V58.5H120.656ZM96.2812 58.5V126.75H84.0938V58.5H96.2812ZM71.9062 58.5V126.75H59.7188V58.5H71.9062ZM47.5312 58.5V126.75H35.3438V58.5H47.5312ZM78 39C75.4141 39 72.9342 37.9728 71.1057 36.1443C69.2772 34.3158 68.25 31.8358 68.25 29.25C68.25 26.6641 69.2772 24.1842 71.1057 22.3557C72.9342 20.5272 75.4141 19.5 78 19.5C80.5859 19.5 83.0658 20.5272 84.8943 22.3557C86.7228 24.1842 87.75 26.6641 87.75 29.25C87.75 31.8358 86.7228 34.3158 84.8943 36.1443C83.0658 37.9728 80.5859 39 78 39ZM4.875 146.25C3.58207 146.25 2.34209 146.764 1.42785 147.678C0.513615 148.592 0 149.832 0 151.125C0 152.418 0.513615 153.658 1.42785 154.572C2.34209 155.486 3.58207 156 4.875 156H151.125C152.418 156 153.658 155.486 154.572 154.572C155.486 153.658 156 152.418 156 151.125C156 149.832 155.486 148.592 154.572 147.678C153.658 146.764 152.418 146.25 151.125 146.25H4.875Z" fill="currentColor"/>
</svg>
