<svg width="156" height="156" viewBox="0 0 156 156" fill="none" xmlns="http://www.w3.org/2000/svg">
<g clip-path="url(#clip0_39858_7942)">
<path d="M56.1307 10.4422C56.6801 10.7712 57.1593 11.2052 57.5409 11.7194C57.9225 12.2336 58.1991 12.818 58.3548 13.4391C58.5106 14.0602 58.5424 14.7059 58.4485 15.3393C58.3547 15.9728 58.1369 16.5815 57.8078 17.1307L32.9842 58.5H123.016L98.1825 17.1307C97.5179 16.0214 97.3213 14.6935 97.6358 13.4392C97.9503 12.1848 98.7502 11.1068 99.8595 10.4422C100.969 9.77767 102.297 9.581 103.551 9.8955C104.805 10.21 105.883 11.0099 106.548 12.1192L134.384 58.5H151.125C152.418 58.5 153.658 59.0136 154.572 59.9278C155.486 60.8421 156 62.0821 156 63.375V73.125C156 74.4179 155.486 75.6579 154.572 76.5721C153.658 77.4864 152.418 78 151.125 78H4.875C3.58207 78 2.34209 77.4864 1.42785 76.5721C0.513615 75.6579 0 74.4179 0 73.125V63.375C0 62.0821 0.513615 60.8421 1.42785 59.9278C2.34209 59.0136 3.58207 58.5 4.875 58.5H21.6157L49.4325 12.1192C49.7615 11.5699 50.1955 11.0907 50.7097 10.7091C51.2239 10.3275 51.8082 10.0509 52.4293 9.89515C53.0505 9.73941 53.6962 9.70758 54.3296 9.80145C54.963 9.89532 55.5815 10.1131 56.1307 10.4422ZM24.063 150.403L9.19425 87.75H146.806L131.937 150.403C131.552 151.999 130.642 153.418 129.352 154.433C128.063 155.448 126.47 156 124.829 156H31.1707C29.5282 156.002 27.9328 155.451 26.6417 154.436C25.3505 153.421 24.4484 152 24.063 150.403Z" fill="currentColor"/>
</g>
<defs>
<clipPath id="clip0_39858_7942">
<rect width="156" height="156" fill="white"/>
</clipPath>
</defs>
</svg>
