<svg width="156" height="156" viewBox="0 0 156 156" fill="none" xmlns="http://www.w3.org/2000/svg">
<path d="M68.25 136.5C68.25 136.5 58.5 136.5 58.5 126.75C58.5 117 68.25 87.75 107.25 87.75C146.25 87.75 156 117 156 126.75C156 136.5 146.25 136.5 146.25 136.5H68.25ZM107.25 78C115.008 78 122.447 74.9183 127.933 69.4329C133.418 63.9474 136.5 56.5076 136.5 48.75C136.5 40.9924 133.418 33.5526 127.933 28.0671C122.447 22.5817 115.008 19.5 107.25 19.5C99.4924 19.5 92.0526 22.5817 86.5671 28.0671C81.0817 33.5526 78 40.9924 78 48.75C78 56.5076 81.0817 63.9474 86.5671 69.4329C92.0526 74.9183 99.4924 78 107.25 78Z" fill="currentColor"/>
<path fill-rule="evenodd" clip-rule="evenodd" d="M50.856 136.5C49.4106 133.456 48.6898 130.119 48.75 126.75C48.75 113.539 55.38 99.9375 67.626 90.48C61.5136 88.5967 55.1455 87.6757 48.75 87.75C9.75 87.75 0 117 0 126.75C0 136.5 9.75 136.5 9.75 136.5H50.856Z" fill="currentColor"/>
<path d="M43.875 78C50.3397 78 56.5395 75.4319 61.1107 70.8607C65.6819 66.2895 68.25 60.0897 68.25 53.625C68.25 47.1603 65.6819 40.9605 61.1107 36.3893C56.5395 31.8181 50.3397 29.25 43.875 29.25C37.4103 29.25 31.2105 31.8181 26.6393 36.3893C22.0681 40.9605 19.5 47.1603 19.5 53.625C19.5 60.0897 22.0681 66.2895 26.6393 70.8607C31.2105 75.4319 37.4103 78 43.875 78Z" fill="currentColor"/>
</svg>
