<svg width="80" height="80" viewBox="0 0 80 80" fill="none" xmlns="http://www.w3.org/2000/svg">
<path d="M5 70C5 70 0 70 0 65C0 60 5 45 30 45C55 45 60 60 60 65C60 70 55 70 55 70H5ZM30 40C33.9782 40 37.7936 38.4196 40.6066 35.6066C43.4197 32.7936 45 28.9782 45 25C45 21.0218 43.4197 17.2064 40.6066 14.3934C37.7936 11.5804 33.9782 10 30 10C26.0218 10 22.2064 11.5804 19.3934 14.3934C16.5804 17.2064 15 21.0218 15 25C15 28.9782 16.5804 32.7936 19.3934 35.6066C22.2064 38.4196 26.0218 40 30 40Z" fill="currentColor"/>
<path fill-rule="evenodd" clip-rule="evenodd" d="M67.5 25C68.163 25 68.7989 25.2634 69.2678 25.7322C69.7366 26.2011 70 26.837 70 27.5V35H77.5C78.163 35 78.7989 35.2634 79.2678 35.7322C79.7366 36.2011 80 36.837 80 37.5C80 38.163 79.7366 38.7989 79.2678 39.2678C78.7989 39.7366 78.163 40 77.5 40H70V47.5C70 48.163 69.7366 48.7989 69.2678 49.2678C68.7989 49.7366 68.163 50 67.5 50C66.837 50 66.2011 49.7366 65.7322 49.2678C65.2634 48.7989 65 48.163 65 47.5V40H57.5C56.837 40 56.2011 39.7366 55.7322 39.2678C55.2634 38.7989 55 38.163 55 37.5C55 36.837 55.2634 36.2011 55.7322 35.7322C56.2011 35.2634 56.837 35 57.5 35H65V27.5C65 26.837 65.2634 26.2011 65.7322 25.7322C66.2011 25.2634 66.837 25 67.5 25Z" fill="currentColor"/>
</svg>
