<svg width="156" height="156" viewBox="0 0 156 156" fill="none" xmlns="http://www.w3.org/2000/svg">
<path d="M29.25 43.875C29.25 42.5821 29.7636 41.3421 30.6779 40.4279C31.5921 39.5136 32.8321 39 34.125 39H92.625C93.9179 39 95.1579 39.5136 96.0722 40.4279C96.9864 41.3421 97.5 42.5821 97.5 43.875C97.5 45.1679 96.9864 46.4079 96.0722 47.3221C95.1579 48.2364 93.9179 48.75 92.625 48.75H34.125C32.8321 48.75 31.5921 48.2364 30.6779 47.3221C29.7636 46.4079 29.25 45.1679 29.25 43.875ZM29.25 63.375C29.25 62.0821 29.7636 60.8421 30.6779 59.9279C31.5921 59.0136 32.8321 58.5 34.125 58.5H92.625C93.9179 58.5 95.1579 59.0136 96.0722 59.9279C96.9864 60.8421 97.5 62.0821 97.5 63.375C97.5 64.6679 96.9864 65.9079 96.0722 66.8221C95.1579 67.7364 93.9179 68.25 92.625 68.25H34.125C32.8321 68.25 31.5921 67.7364 30.6779 66.8221C29.7636 65.9079 29.25 64.6679 29.25 63.375ZM29.25 82.875C29.25 81.5821 29.7636 80.3421 30.6779 79.4278C31.5921 78.5136 32.8321 78 34.125 78H92.625C93.9179 78 95.1579 78.5136 96.0722 79.4278C96.9864 80.3421 97.5 81.5821 97.5 82.875C97.5 84.1679 96.9864 85.4079 96.0722 86.3222C95.1579 87.2364 93.9179 87.75 92.625 87.75H34.125C32.8321 87.75 31.5921 87.2364 30.6779 86.3222C29.7636 85.4079 29.25 84.1679 29.25 82.875ZM29.25 102.375C29.25 101.082 29.7636 99.8421 30.6779 98.9278C31.5921 98.0136 32.8321 97.5 34.125 97.5H92.625C93.9179 97.5 95.1579 98.0136 96.0722 98.9278C96.9864 99.8421 97.5 101.082 97.5 102.375C97.5 103.668 96.9864 104.908 96.0722 105.822C95.1579 106.736 93.9179 107.25 92.625 107.25H34.125C32.8321 107.25 31.5921 106.736 30.6779 105.822C29.7636 104.908 29.25 103.668 29.25 102.375ZM29.25 121.875C29.25 120.582 29.7636 119.342 30.6779 118.428C31.5921 117.514 32.8321 117 34.125 117H92.625C93.9179 117 95.1579 117.514 96.0722 118.428C96.9864 119.342 97.5 120.582 97.5 121.875C97.5 123.168 96.9864 124.408 96.0722 125.322C95.1579 126.236 93.9179 126.75 92.625 126.75H34.125C32.8321 126.75 31.5921 126.236 30.6779 125.322C29.7636 124.408 29.25 123.168 29.25 121.875ZM112.125 39C110.832 39 109.592 39.5136 108.678 40.4279C107.764 41.3421 107.25 42.5821 107.25 43.875C107.25 45.1679 107.764 46.4079 108.678 47.3221C109.592 48.2364 110.832 48.75 112.125 48.75H121.875C123.168 48.75 124.408 48.2364 125.322 47.3221C126.236 46.4079 126.75 45.1679 126.75 43.875C126.75 42.5821 126.236 41.3421 125.322 40.4279C124.408 39.5136 123.168 39 121.875 39H112.125ZM112.125 58.5C110.832 58.5 109.592 59.0136 108.678 59.9279C107.764 60.8421 107.25 62.0821 107.25 63.375C107.25 64.6679 107.764 65.9079 108.678 66.8221C109.592 67.7364 110.832 68.25 112.125 68.25H121.875C123.168 68.25 124.408 67.7364 125.322 66.8221C126.236 65.9079 126.75 64.6679 126.75 63.375C126.75 62.0821 126.236 60.8421 125.322 59.9279C124.408 59.0136 123.168 58.5 121.875 58.5H112.125ZM112.125 78C110.832 78 109.592 78.5136 108.678 79.4278C107.764 80.3421 107.25 81.5821 107.25 82.875C107.25 84.1679 107.764 85.4079 108.678 86.3222C109.592 87.2364 110.832 87.75 112.125 87.75H121.875C123.168 87.75 124.408 87.2364 125.322 86.3222C126.236 85.4079 126.75 84.1679 126.75 82.875C126.75 81.5821 126.236 80.3421 125.322 79.4278C124.408 78.5136 123.168 78 121.875 78H112.125ZM112.125 97.5C110.832 97.5 109.592 98.0136 108.678 98.9278C107.764 99.8421 107.25 101.082 107.25 102.375C107.25 103.668 107.764 104.908 108.678 105.822C109.592 106.736 110.832 107.25 112.125 107.25H121.875C123.168 107.25 124.408 106.736 125.322 105.822C126.236 104.908 126.75 103.668 126.75 102.375C126.75 101.082 126.236 99.8421 125.322 98.9278C124.408 98.0136 123.168 97.5 121.875 97.5H112.125ZM112.125 117C110.832 117 109.592 117.514 108.678 118.428C107.764 119.342 107.25 120.582 107.25 121.875C107.25 123.168 107.764 124.408 108.678 125.322C109.592 126.236 110.832 126.75 112.125 126.75H121.875C123.168 126.75 124.408 126.236 125.322 125.322C126.236 124.408 126.75 123.168 126.75 121.875C126.75 120.582 126.236 119.342 125.322 118.428C124.408 117.514 123.168 117 121.875 117H112.125Z" fill="currentColor"/>
<path d="M22.9515 6.29849C22.4053 5.75183 21.7369 5.34286 21.0015 5.10532C20.2662 4.86777 19.4848 4.80845 18.722 4.93225C17.9592 5.05606 17.2368 5.35943 16.6143 5.81735C15.9918 6.27528 15.4871 6.87464 15.1417 7.56599L10.2667 17.316C9.92699 17.9939 9.75005 18.7417 9.75 19.5V146.25H4.875C3.58207 146.25 2.34209 146.764 1.42785 147.678C0.513615 148.592 0 149.832 0 151.125C0 152.418 0.513615 153.658 1.42785 154.572C2.34209 155.486 3.58207 156 4.875 156H151.125C152.418 156 153.658 155.486 154.572 154.572C155.486 153.658 156 152.418 156 151.125C156 149.832 155.486 148.592 154.572 147.678C153.658 146.764 152.418 146.25 151.125 146.25H146.25V19.5C146.25 18.7417 146.073 17.9939 145.733 17.316L140.858 7.56599C140.513 6.87639 140.008 6.27868 139.386 5.82198C138.765 5.36528 138.044 5.06263 137.282 4.9389C136.521 4.81517 135.741 4.8739 135.007 5.11025C134.272 5.34661 133.605 5.75384 133.058 6.29849L126.75 12.6067L120.451 6.29849C119.999 5.8445 119.461 5.4843 118.868 5.23854C118.276 4.99278 117.641 4.86627 117 4.86627C116.359 4.86627 115.724 4.99278 115.132 5.23854C114.539 5.4843 114.001 5.8445 113.549 6.29849L107.25 12.6067L100.951 6.29849C100.499 5.8445 99.9607 5.4843 99.3684 5.23854C98.7762 4.99278 98.1412 4.86627 97.5 4.86627C96.8588 4.86627 96.2238 4.99278 95.6316 5.23854C95.0393 5.4843 94.5013 5.8445 94.0485 6.29849L87.75 12.6067L81.4515 6.29849C80.9987 5.8445 80.4607 5.4843 79.8684 5.23854C79.2762 4.99278 78.6412 4.86627 78 4.86627C77.3588 4.86627 76.7238 4.99278 76.1316 5.23854C75.5393 5.4843 75.0013 5.8445 74.5485 6.29849L68.25 12.6067L61.9515 6.29849C61.4987 5.8445 60.9607 5.4843 60.3684 5.23854C59.7762 4.99278 59.1412 4.86627 58.5 4.86627C57.8588 4.86627 57.2238 4.99278 56.6316 5.23854C56.0393 5.4843 55.5013 5.8445 55.0485 6.29849L48.75 12.6067L42.4515 6.29849C41.9987 5.8445 41.4607 5.4843 40.8684 5.23854C40.2762 4.99278 39.6412 4.86627 39 4.86627C38.3588 4.86627 37.7238 4.99278 37.1316 5.23854C36.5393 5.4843 36.0013 5.8445 35.5485 6.29849L29.25 12.6067L22.9515 6.29849ZM20.8358 17.979L25.8083 22.9515C26.7224 23.8654 27.9622 24.3788 29.2549 24.3788C30.5476 24.3788 31.7873 23.8654 32.7015 22.9515L39 16.6432L45.2985 22.9515C45.7513 23.4055 46.2893 23.7657 46.8816 24.0114C47.4738 24.2572 48.1088 24.3837 48.75 24.3837C49.3912 24.3837 50.0262 24.2572 50.6184 24.0114C51.2107 23.7657 51.7487 23.4055 52.2015 22.9515L58.5 16.6432L64.7985 22.9515C65.2513 23.4055 65.7893 23.7657 66.3816 24.0114C66.9738 24.2572 67.6088 24.3837 68.25 24.3837C68.8912 24.3837 69.5262 24.2572 70.1184 24.0114C70.7107 23.7657 71.2487 23.4055 71.7015 22.9515L78 16.6432L84.2985 22.9515C84.7513 23.4055 85.2893 23.7657 85.8816 24.0114C86.4738 24.2572 87.1088 24.3837 87.75 24.3837C88.3912 24.3837 89.0262 24.2572 89.6184 24.0114C90.2107 23.7657 90.7487 23.4055 91.2015 22.9515L97.5 16.6432L103.799 22.9515C104.251 23.4055 104.789 23.7657 105.382 24.0114C105.974 24.2572 106.609 24.3837 107.25 24.3837C107.891 24.3837 108.526 24.2572 109.118 24.0114C109.711 23.7657 110.249 23.4055 110.701 22.9515L117 16.6432L123.299 22.9515C123.751 23.4055 124.289 23.7657 124.882 24.0114C125.474 24.2572 126.109 24.3837 126.75 24.3837C127.391 24.3837 128.026 24.2572 128.618 24.0114C129.211 23.7657 129.749 23.4055 130.202 22.9515L135.164 17.979L136.5 20.6505V146.25H19.5V20.6505L20.8358 17.979Z" fill="currentColor"/>
</svg>
