<svg width="14" height="14" viewBox="0 0 14 14" fill="none" xmlns="http://www.w3.org/2000/svg">
<path d="M8.13926 1.09899C8.02442 0.898246 7.85857 0.73141 7.65851 0.615377C7.45845 0.499343 7.23128 0.438232 7.00001 0.438232C6.76873 0.438232 6.54157 0.499343 6.34151 0.615377C6.14145 0.73141 5.9756 0.898246 5.86076 1.09899L4.36976 3.70649C4.31209 3.80732 4.29684 3.92693 4.32736 4.03901C4.35788 4.15109 4.43168 4.24645 4.53251 4.30412C4.63334 4.36179 4.75295 4.37704 4.86503 4.34651C4.9771 4.31599 5.07247 4.2422 5.13013 4.14137L6.62026 1.53299C6.65854 1.46608 6.71382 1.41046 6.78051 1.37179C6.84719 1.33311 6.92292 1.31274 7.00001 1.31274C7.0771 1.31274 7.15282 1.33311 7.21951 1.37179C7.28619 1.41046 7.34148 1.46608 7.37976 1.53299L9.60226 5.42149L8.50326 5.12662C8.39117 5.09645 8.27169 5.11204 8.1711 5.16997C8.07051 5.22789 7.99705 5.3234 7.96688 5.43549C7.93671 5.54758 7.95231 5.66706 8.01023 5.76765C8.06816 5.86824 8.16367 5.9417 8.27576 5.97187L10.3889 6.53799C10.4444 6.55295 10.5023 6.55683 10.5593 6.5494C10.6163 6.54197 10.6713 6.52339 10.7211 6.4947C10.7709 6.46602 10.8146 6.4278 10.8496 6.38223C10.8846 6.33666 10.9103 6.28463 10.9253 6.22912L11.4914 4.11599C11.5063 4.06049 11.5101 4.0026 11.5026 3.94564C11.4951 3.88867 11.4764 3.83373 11.4477 3.78396C11.419 3.7342 11.3808 3.69057 11.3352 3.65559C11.2896 3.6206 11.2376 3.59493 11.1821 3.58005C11.1266 3.56517 11.0687 3.56137 11.0117 3.56886C10.9547 3.57635 10.8998 3.59499 10.85 3.62371C10.8003 3.65244 10.7567 3.69068 10.7217 3.73626C10.6867 3.78184 10.661 3.83387 10.6461 3.88937L10.3548 4.97612L8.13926 1.09899ZM2.60138 6.80137L1.50326 7.09624C1.39117 7.12641 1.27169 7.11082 1.1711 7.05289C1.07051 6.99497 0.997052 6.89945 0.966883 6.78737C0.936715 6.67528 0.952309 6.5558 1.01023 6.45521C1.06816 6.35462 1.16367 6.28116 1.27576 6.25099L3.38976 5.68487C3.50173 5.65492 3.621 5.67062 3.7214 5.72853C3.8218 5.78644 3.89512 5.88183 3.92526 5.99374L4.49138 8.10687C4.52144 8.21896 4.50573 8.33839 4.44772 8.4389C4.38972 8.5394 4.29416 8.61275 4.18207 8.64281C4.06998 8.67286 3.95055 8.65715 3.85004 8.59915C3.74953 8.54114 3.67619 8.44558 3.64613 8.33349L3.35476 7.24674L1.12788 11.144C1.08988 11.2105 1.07002 11.2859 1.07028 11.3625C1.07054 11.4391 1.09091 11.5143 1.12936 11.5806C1.16781 11.6468 1.22299 11.7018 1.28937 11.7401C1.35575 11.7783 1.43102 11.7985 1.50763 11.7985H4.37501C4.49104 11.7985 4.60232 11.8446 4.68437 11.9266C4.76641 12.0087 4.81251 12.12 4.81251 12.236C4.81251 12.352 4.76641 12.4633 4.68437 12.5454C4.60232 12.6274 4.49104 12.6735 4.37501 12.6735H1.50763C1.27779 12.6734 1.052 12.613 0.852843 12.4982C0.653688 12.3835 0.488157 12.2185 0.372809 12.0197C0.257461 11.8209 0.196341 11.5953 0.195564 11.3654C0.194788 11.1356 0.254381 10.9096 0.368383 10.71L2.60138 6.80137ZM12.1301 8.08149C12.1024 8.03018 12.0647 7.98493 12.0192 7.94841C11.9737 7.91189 11.9214 7.88482 11.8653 7.86881C11.8093 7.8528 11.7505 7.84816 11.6926 7.85518C11.6347 7.86219 11.5788 7.88071 11.5282 7.90965C11.4775 7.93858 11.4332 7.97736 11.3978 8.02368C11.3623 8.07 11.3365 8.12295 11.3218 8.17939C11.3072 8.23584 11.3039 8.29465 11.3123 8.35237C11.3207 8.41009 11.3405 8.46555 11.3706 8.51549L12.8721 11.144C12.9101 11.2105 12.93 11.2859 12.9297 11.3625C12.9295 11.4391 12.9091 11.5143 12.8707 11.5806C12.8322 11.6468 12.777 11.7018 12.7106 11.7401C12.6443 11.7783 12.569 11.7985 12.4924 11.7985H7.61863L8.18476 11.2332C8.26679 11.1511 8.31283 11.0397 8.31275 10.9236C8.31267 10.8075 8.26647 10.6962 8.18432 10.6142C8.14364 10.5736 8.09536 10.5414 8.04224 10.5194C7.98911 10.4974 7.93218 10.4861 7.8747 10.4862C7.7586 10.4863 7.64729 10.5325 7.56526 10.6146L6.25276 11.9271C6.21194 11.9676 6.17954 12.0158 6.15743 12.0689C6.13532 12.122 6.12393 12.1789 6.12393 12.2364C6.12393 12.2939 6.13532 12.3509 6.15743 12.404C6.17954 12.4571 6.21194 12.5052 6.25276 12.5457L7.56526 13.8582C7.64729 13.9404 7.7586 13.9866 7.8747 13.9867C7.93218 13.9867 7.98911 13.9754 8.04224 13.9535C8.09536 13.9315 8.14364 13.8993 8.18432 13.8587C8.225 13.8181 8.25728 13.7698 8.27931 13.7167C8.30135 13.6636 8.31271 13.6067 8.31275 13.5492C8.31279 13.4918 8.30151 13.4348 8.27955 13.3817C8.25759 13.3286 8.22538 13.2803 8.18476 13.2396L7.61863 12.6735H12.4924C12.7222 12.6734 12.948 12.613 13.1472 12.4982C13.3463 12.3835 13.5119 12.2185 13.6272 12.0197C13.7426 11.8209 13.8037 11.5953 13.8045 11.3654C13.8052 11.1356 13.7456 10.9096 13.6316 10.71L12.1301 8.08149Z" fill="currentColor"/>
</svg>
