<svg width="17" height="16" viewBox="0 0 17 16" fill="none" xmlns="http://www.w3.org/2000/svg">
<path d="M11.3334 0C11.8386 0 12.3256 0.0651042 12.7943 0.195312C13.2631 0.325521 13.7006 0.510417 14.1068 0.75C14.5131 0.989583 14.8829 1.27865 15.2162 1.61719C15.5547 1.95052 15.8438 2.32031 16.0834 2.72656C16.323 3.13281 16.5079 3.57031 16.6381 4.03906C16.7683 4.50781 16.8334 4.99479 16.8334 5.5C16.8334 6.00521 16.7683 6.49219 16.6381 6.96094C16.5079 7.42969 16.323 7.86719 16.0834 8.27344C15.8438 8.67969 15.5547 9.05208 15.2162 9.39062C14.8829 9.72396 14.5131 10.0104 14.1068 10.25C13.7006 10.4896 13.2631 10.6745 12.7943 10.8047C12.3256 10.9349 11.8386 11 11.3334 11C10.6823 11 10.0573 10.8906 9.45837 10.6719C8.86462 10.4531 8.31775 10.138 7.81775 9.72656L1.68494 15.8516C1.58598 15.9505 1.46879 16 1.33337 16C1.19796 16 1.08077 15.9505 0.981812 15.8516C0.882853 15.7526 0.833374 15.6354 0.833374 15.5C0.833374 15.3646 0.882853 15.2474 0.981812 15.1484L7.10681 9.01562C6.69535 8.51562 6.38025 7.96875 6.1615 7.375C5.94275 6.77604 5.83337 6.15104 5.83337 5.5C5.83337 4.99479 5.89848 4.50781 6.02869 4.03906C6.15889 3.57031 6.34379 3.13281 6.58337 2.72656C6.82296 2.32031 7.10942 1.95052 7.44275 1.61719C7.78129 1.27865 8.15369 0.989583 8.55994 0.75C8.96619 0.510417 9.40369 0.325521 9.87244 0.195312C10.3412 0.0651042 10.8282 0 11.3334 0ZM11.3334 10C11.9532 10 12.5365 9.88281 13.0834 9.64844C13.6302 9.40885 14.1068 9.08594 14.5131 8.67969C14.9193 8.27344 15.2396 7.79688 15.474 7.25C15.7136 6.70312 15.8334 6.11979 15.8334 5.5C15.8334 4.88021 15.7136 4.29688 15.474 3.75C15.2396 3.20312 14.9193 2.72656 14.5131 2.32031C14.1068 1.91406 13.6302 1.59375 13.0834 1.35938C12.5365 1.11979 11.9532 1 11.3334 1C10.7136 1 10.1302 1.11979 9.58337 1.35938C9.0365 1.59375 8.55994 1.91406 8.15369 2.32031C7.74744 2.72656 7.42452 3.20312 7.18494 3.75C6.95056 4.29688 6.83337 4.88021 6.83337 5.5C6.83337 6.11979 6.95056 6.70312 7.18494 7.25C7.42452 7.79688 7.74744 8.27344 8.15369 8.67969C8.55994 9.08594 9.0365 9.40885 9.58337 9.64844C10.1302 9.88281 10.7136 10 11.3334 10Z" fill="#004578"/>
</svg>
