<svg width="14" height="14" viewBox="0 0 14 14" fill="none" xmlns="http://www.w3.org/2000/svg">
<path d="M2.1875 0.875C1.95544 0.875 1.73288 0.967187 1.56878 1.13128C1.40469 1.29538 1.3125 1.51794 1.3125 1.75V2.625C1.3125 2.85706 1.40469 3.07962 1.56878 3.24372C1.73288 3.40781 1.95544 3.5 2.1875 3.5H2.625V11.375C2.625 11.8391 2.80937 12.2842 3.13756 12.6124C3.46575 12.9406 3.91087 13.125 4.375 13.125H9.625C10.0891 13.125 10.5342 12.9406 10.8624 12.6124C11.1906 12.2842 11.375 11.8391 11.375 11.375V3.5H11.8125C12.0446 3.5 12.2671 3.40781 12.4312 3.24372C12.5953 3.07962 12.6875 2.85706 12.6875 2.625V1.75C12.6875 1.51794 12.5953 1.29538 12.4312 1.13128C12.2671 0.967187 12.0446 0.875 11.8125 0.875H8.75C8.75 0.642936 8.65781 0.420376 8.49372 0.256282C8.32962 0.0921872 8.10706 0 7.875 0L6.125 0C5.89294 0 5.67038 0.0921872 5.50628 0.256282C5.34219 0.420376 5.25 0.642936 5.25 0.875H2.1875ZM4.8125 4.375C4.92853 4.375 5.03981 4.42109 5.12186 4.50314C5.20391 4.58519 5.25 4.69647 5.25 4.8125V10.9375C5.25 11.0535 5.20391 11.1648 5.12186 11.2469C5.03981 11.3289 4.92853 11.375 4.8125 11.375C4.69647 11.375 4.58519 11.3289 4.50314 11.2469C4.42109 11.1648 4.375 11.0535 4.375 10.9375V4.8125C4.375 4.69647 4.42109 4.58519 4.50314 4.50314C4.58519 4.42109 4.69647 4.375 4.8125 4.375ZM7 4.375C7.11603 4.375 7.22731 4.42109 7.30936 4.50314C7.39141 4.58519 7.4375 4.69647 7.4375 4.8125V10.9375C7.4375 11.0535 7.39141 11.1648 7.30936 11.2469C7.22731 11.3289 7.11603 11.375 7 11.375C6.88397 11.375 6.77269 11.3289 6.69064 11.2469C6.60859 11.1648 6.5625 11.0535 6.5625 10.9375V4.8125C6.5625 4.69647 6.60859 4.58519 6.69064 4.50314C6.77269 4.42109 6.88397 4.375 7 4.375ZM9.625 4.8125V10.9375C9.625 11.0535 9.57891 11.1648 9.49686 11.2469C9.41481 11.3289 9.30353 11.375 9.1875 11.375C9.07147 11.375 8.96019 11.3289 8.87814 11.2469C8.79609 11.1648 8.75 11.0535 8.75 10.9375V4.8125C8.75 4.69647 8.79609 4.58519 8.87814 4.50314C8.96019 4.42109 9.07147 4.375 9.1875 4.375C9.30353 4.375 9.41481 4.42109 9.49686 4.50314C9.57891 4.58519 9.625 4.69647 9.625 4.8125Z" fill="currentColor"/>
</svg>
